<?xml version="1.0" encoding="UTF-8"?>
<svg xmlns="http://www.w3.org/2000/svg" xmlns:xlink="http://www.w3.org/1999/xlink" width="642" height="886.5" viewBox="0 0 642 886.5">
  <text
    x="321"
    y="54"
    text-anchor="middle"
    font-family="Arial, Helvetica, sans-serif"
    font-size="40"
    font-weight="800"
    fill="#000000"
  ><tspan fill="#000000">Brain</tspan><tspan fill="#18ff6d">Stats</tspan></text>
  <text
    x="321"
    y="90.7"
    text-anchor="middle"
    font-family="Arial, Helvetica, sans-serif"
    font-size="22"
    font-weight="700"
    fill="#000000"
  >Analysera dina fotbollsspel med vår AI</text>
  <text
    x="321"
    y="113.3"
    text-anchor="middle"
    font-family="Arial, Helvetica, sans-serif"
    font-size="18"
    font-weight="500"
    fill="#000000"
  >Alternativ 1 · Klistra in din spelidé</text>
  <text
    x="321"
    y="139.3"
    text-anchor="middle"
    font-family="Arial, Helvetica, sans-serif"
    font-size="18"
    font-weight="500"
    fill="#000000"
  >Alternativ 2 · Ladda upp bild på kupongen</text>
  <text
    x="321"
    y="165.3"
    text-anchor="middle"
    font-family="Arial, Helvetica, sans-serif"
    font-size="18"
    font-weight="500"
    fill="#000000"
  >Alternativ 3 · Bygg ditt eget spel</text>
  <g transform="translate(24, 194)"><rect x="36" y="36" width="18" height="18" fill="#000000"/><rect x="54" y="36" width="18" height="18" fill="#000000"/><rect x="72" y="36" width="18" height="18" fill="#000000"/><rect x="90" y="36" width="18" height="18" fill="#000000"/><rect x="108" y="36" width="18" height="18" fill="#000000"/><rect x="126" y="36" width="18" height="18" fill="#000000"/><rect x="144" y="36" width="18" height="18" fill="#000000"/><rect x="180" y="36" width="18" height="18" fill="#000000"/><rect x="198" y="36" width="18" height="18" fill="#000000"/><rect x="234" y="36" width="18" height="18" fill="#000000"/><rect x="252" y="36" width="18" height="18" fill="#000000"/><rect x="396" y="36" width="18" height="18" fill="#000000"/><rect x="432" y="36" width="18" height="18" fill="#000000"/><rect x="450" y="36" width="18" height="18" fill="#000000"/><rect x="468" y="36" width="18" height="18" fill="#000000"/><rect x="486" y="36" width="18" height="18" fill="#000000"/><rect x="504" y="36" width="18" height="18" fill="#000000"/><rect x="522" y="36" width="18" height="18" fill="#000000"/><rect x="540" y="36" width="18" height="18" fill="#000000"/><rect x="36" y="54" width="18" height="18" fill="#000000"/><rect x="144" y="54" width="18" height="18" fill="#000000"/><rect x="198" y="54" width="18" height="18" fill="#000000"/><rect x="234" y="54" width="18" height="18" fill="#000000"/><rect x="252" y="54" width="18" height="18" fill="#000000"/><rect x="324" y="54" width="18" height="18" fill="#000000"/><rect x="342" y="54" width="18" height="18" fill="#000000"/><rect x="378" y="54" width="18" height="18" fill="#000000"/><rect x="396" y="54" width="18" height="18" fill="#000000"/><rect x="432" y="54" width="18" height="18" fill="#000000"/><rect x="540" y="54" width="18" height="18" fill="#000000"/><rect x="36" y="72" width="18" height="18" fill="#000000"/><rect x="72" y="72" width="18" height="18" fill="#000000"/><rect x="90" y="72" width="18" height="18" fill="#000000"/><rect x="108" y="72" width="18" height="18" fill="#000000"/><rect x="144" y="72" width="18" height="18" fill="#000000"/><rect x="198" y="72" width="18" height="18" fill="#000000"/><rect x="216" y="72" width="18" height="18" fill="#000000"/><rect x="252" y="72" width="18" height="18" fill="#000000"/><rect x="270" y="72" width="18" height="18" fill="#000000"/><rect x="288" y="72" width="18" height="18" fill="#000000"/><rect x="306" y="72" width="18" height="18" fill="#000000"/><rect x="396" y="72" width="18" height="18" fill="#000000"/><rect x="432" y="72" width="18" height="18" fill="#000000"/><rect x="468" y="72" width="18" height="18" fill="#000000"/><rect x="486" y="72" width="18" height="18" fill="#000000"/><rect x="504" y="72" width="18" height="18" fill="#000000"/><rect x="540" y="72" width="18" height="18" fill="#000000"/><rect x="36" y="90" width="18" height="18" fill="#000000"/><rect x="72" y="90" width="18" height="18" fill="#000000"/><rect x="90" y="90" width="18" height="18" fill="#000000"/><rect x="108" y="90" width="18" height="18" fill="#000000"/><rect x="144" y="90" width="18" height="18" fill="#000000"/><rect x="180" y="90" width="18" height="18" fill="#000000"/><rect x="198" y="90" width="18" height="18" fill="#000000"/><rect x="234" y="90" width="18" height="18" fill="#000000"/><rect x="252" y="90" width="18" height="18" fill="#000000"/><rect x="360" y="90" width="18" height="18" fill="#000000"/><rect x="378" y="90" width="18" height="18" fill="#000000"/><rect x="432" y="90" width="18" height="18" fill="#000000"/><rect x="468" y="90" width="18" height="18" fill="#000000"/><rect x="486" y="90" width="18" height="18" fill="#000000"/><rect x="504" y="90" width="18" height="18" fill="#000000"/><rect x="540" y="90" width="18" height="18" fill="#000000"/><rect x="36" y="108" width="18" height="18" fill="#000000"/><rect x="72" y="108" width="18" height="18" fill="#000000"/><rect x="90" y="108" width="18" height="18" fill="#000000"/><rect x="108" y="108" width="18" height="18" fill="#000000"/><rect x="144" y="108" width="18" height="18" fill="#000000"/><rect x="198" y="108" width="18" height="18" fill="#000000"/><rect x="270" y="108" width="18" height="18" fill="#000000"/><rect x="342" y="108" width="18" height="18" fill="#000000"/><rect x="360" y="108" width="18" height="18" fill="#000000"/><rect x="378" y="108" width="18" height="18" fill="#000000"/><rect x="432" y="108" width="18" height="18" fill="#000000"/><rect x="468" y="108" width="18" height="18" fill="#000000"/><rect x="486" y="108" width="18" height="18" fill="#000000"/><rect x="504" y="108" width="18" height="18" fill="#000000"/><rect x="540" y="108" width="18" height="18" fill="#000000"/><rect x="36" y="126" width="18" height="18" fill="#000000"/><rect x="144" y="126" width="18" height="18" fill="#000000"/><rect x="234" y="126" width="18" height="18" fill="#000000"/><rect x="252" y="126" width="18" height="18" fill="#000000"/><rect x="270" y="126" width="18" height="18" fill="#000000"/><rect x="288" y="126" width="18" height="18" fill="#000000"/><rect x="360" y="126" width="18" height="18" fill="#000000"/><rect x="378" y="126" width="18" height="18" fill="#000000"/><rect x="432" y="126" width="18" height="18" fill="#000000"/><rect x="540" y="126" width="18" height="18" fill="#000000"/><rect x="36" y="144" width="18" height="18" fill="#000000"/><rect x="54" y="144" width="18" height="18" fill="#000000"/><rect x="72" y="144" width="18" height="18" fill="#000000"/><rect x="90" y="144" width="18" height="18" fill="#000000"/><rect x="108" y="144" width="18" height="18" fill="#000000"/><rect x="126" y="144" width="18" height="18" fill="#000000"/><rect x="144" y="144" width="18" height="18" fill="#000000"/><rect x="180" y="144" width="18" height="18" fill="#000000"/><rect x="216" y="144" width="18" height="18" fill="#000000"/><rect x="252" y="144" width="18" height="18" fill="#000000"/><rect x="288" y="144" width="18" height="18" fill="#000000"/><rect x="324" y="144" width="18" height="18" fill="#000000"/><rect x="360" y="144" width="18" height="18" fill="#000000"/><rect x="396" y="144" width="18" height="18" fill="#000000"/><rect x="432" y="144" width="18" height="18" fill="#000000"/><rect x="450" y="144" width="18" height="18" fill="#000000"/><rect x="468" y="144" width="18" height="18" fill="#000000"/><rect x="486" y="144" width="18" height="18" fill="#000000"/><rect x="504" y="144" width="18" height="18" fill="#000000"/><rect x="522" y="144" width="18" height="18" fill="#000000"/><rect x="540" y="144" width="18" height="18" fill="#000000"/><rect x="198" y="162" width="18" height="18" fill="#000000"/><rect x="216" y="162" width="18" height="18" fill="#000000"/><rect x="252" y="162" width="18" height="18" fill="#000000"/><rect x="270" y="162" width="18" height="18" fill="#000000"/><rect x="306" y="162" width="18" height="18" fill="#000000"/><rect x="72" y="180" width="18" height="18" fill="#000000"/><rect x="108" y="180" width="18" height="18" fill="#000000"/><rect x="126" y="180" width="18" height="18" fill="#000000"/><rect x="144" y="180" width="18" height="18" fill="#000000"/><rect x="180" y="180" width="18" height="18" fill="#000000"/><rect x="198" y="180" width="18" height="18" fill="#000000"/><rect x="252" y="180" width="18" height="18" fill="#000000"/><rect x="288" y="180" width="18" height="18" fill="#000000"/><rect x="324" y="180" width="18" height="18" fill="#000000"/><rect x="396" y="180" width="18" height="18" fill="#000000"/><rect x="414" y="180" width="18" height="18" fill="#000000"/><rect x="486" y="180" width="18" height="18" fill="#000000"/><rect x="540" y="180" width="18" height="18" fill="#000000"/><rect x="36" y="198" width="18" height="18" fill="#000000"/><rect x="54" y="198" width="18" height="18" fill="#000000"/><rect x="90" y="198" width="18" height="18" fill="#000000"/><rect x="126" y="198" width="18" height="18" fill="#000000"/><rect x="162" y="198" width="18" height="18" fill="#000000"/><rect x="216" y="198" width="18" height="18" fill="#000000"/><rect x="234" y="198" width="18" height="18" fill="#000000"/><rect x="378" y="198" width="18" height="18" fill="#000000"/><rect x="396" y="198" width="18" height="18" fill="#000000"/><rect x="414" y="198" width="18" height="18" fill="#000000"/><rect x="432" y="198" width="18" height="18" fill="#000000"/><rect x="450" y="198" width="18" height="18" fill="#000000"/><rect x="486" y="198" width="18" height="18" fill="#000000"/><rect x="540" y="198" width="18" height="18" fill="#000000"/><rect x="54" y="216" width="18" height="18" fill="#000000"/><rect x="90" y="216" width="18" height="18" fill="#000000"/><rect x="108" y="216" width="18" height="18" fill="#000000"/><rect x="144" y="216" width="18" height="18" fill="#000000"/><rect x="162" y="216" width="18" height="18" fill="#000000"/><rect x="180" y="216" width="18" height="18" fill="#000000"/><rect x="198" y="216" width="18" height="18" fill="#000000"/><rect x="216" y="216" width="18" height="18" fill="#000000"/><rect x="234" y="216" width="18" height="18" fill="#000000"/><rect x="270" y="216" width="18" height="18" fill="#000000"/><rect x="342" y="216" width="18" height="18" fill="#000000"/><rect x="378" y="216" width="18" height="18" fill="#000000"/><rect x="396" y="216" width="18" height="18" fill="#000000"/><rect x="450" y="216" width="18" height="18" fill="#000000"/><rect x="486" y="216" width="18" height="18" fill="#000000"/><rect x="522" y="216" width="18" height="18" fill="#000000"/><rect x="540" y="216" width="18" height="18" fill="#000000"/><rect x="72" y="234" width="18" height="18" fill="#000000"/><rect x="90" y="234" width="18" height="18" fill="#000000"/><rect x="180" y="234" width="18" height="18" fill="#000000"/><rect x="198" y="234" width="18" height="18" fill="#000000"/><rect x="216" y="234" width="18" height="18" fill="#000000"/><rect x="252" y="234" width="18" height="18" fill="#000000"/><rect x="306" y="234" width="18" height="18" fill="#000000"/><rect x="396" y="234" width="18" height="18" fill="#000000"/><rect x="414" y="234" width="18" height="18" fill="#000000"/><rect x="432" y="234" width="18" height="18" fill="#000000"/><rect x="450" y="234" width="18" height="18" fill="#000000"/><rect x="522" y="234" width="18" height="18" fill="#000000"/><rect x="36" y="252" width="18" height="18" fill="#000000"/><rect x="72" y="252" width="18" height="18" fill="#000000"/><rect x="108" y="252" width="18" height="18" fill="#000000"/><rect x="126" y="252" width="18" height="18" fill="#000000"/><rect x="144" y="252" width="18" height="18" fill="#000000"/><rect x="216" y="252" width="18" height="18" fill="#000000"/><rect x="234" y="252" width="18" height="18" fill="#000000"/><rect x="270" y="252" width="18" height="18" fill="#000000"/><rect x="306" y="252" width="18" height="18" fill="#000000"/><rect x="378" y="252" width="18" height="18" fill="#000000"/><rect x="432" y="252" width="18" height="18" fill="#000000"/><rect x="450" y="252" width="18" height="18" fill="#000000"/><rect x="486" y="252" width="18" height="18" fill="#000000"/><rect x="36" y="270" width="18" height="18" fill="#000000"/><rect x="72" y="270" width="18" height="18" fill="#000000"/><rect x="126" y="270" width="18" height="18" fill="#000000"/><rect x="198" y="270" width="18" height="18" fill="#000000"/><rect x="216" y="270" width="18" height="18" fill="#000000"/><rect x="234" y="270" width="18" height="18" fill="#000000"/><rect x="270" y="270" width="18" height="18" fill="#000000"/><rect x="288" y="270" width="18" height="18" fill="#000000"/><rect x="306" y="270" width="18" height="18" fill="#000000"/><rect x="342" y="270" width="18" height="18" fill="#000000"/><rect x="360" y="270" width="18" height="18" fill="#000000"/><rect x="396" y="270" width="18" height="18" fill="#000000"/><rect x="414" y="270" width="18" height="18" fill="#000000"/><rect x="432" y="270" width="18" height="18" fill="#000000"/><rect x="450" y="270" width="18" height="18" fill="#000000"/><rect x="540" y="270" width="18" height="18" fill="#000000"/><rect x="54" y="288" width="18" height="18" fill="#000000"/><rect x="72" y="288" width="18" height="18" fill="#000000"/><rect x="126" y="288" width="18" height="18" fill="#000000"/><rect x="144" y="288" width="18" height="18" fill="#000000"/><rect x="180" y="288" width="18" height="18" fill="#000000"/><rect x="234" y="288" width="18" height="18" fill="#000000"/><rect x="252" y="288" width="18" height="18" fill="#000000"/><rect x="270" y="288" width="18" height="18" fill="#000000"/><rect x="288" y="288" width="18" height="18" fill="#000000"/><rect x="324" y="288" width="18" height="18" fill="#000000"/><rect x="342" y="288" width="18" height="18" fill="#000000"/><rect x="396" y="288" width="18" height="18" fill="#000000"/><rect x="414" y="288" width="18" height="18" fill="#000000"/><rect x="450" y="288" width="18" height="18" fill="#000000"/><rect x="504" y="288" width="18" height="18" fill="#000000"/><rect x="522" y="288" width="18" height="18" fill="#000000"/><rect x="540" y="288" width="18" height="18" fill="#000000"/><rect x="54" y="306" width="18" height="18" fill="#000000"/><rect x="90" y="306" width="18" height="18" fill="#000000"/><rect x="126" y="306" width="18" height="18" fill="#000000"/><rect x="162" y="306" width="18" height="18" fill="#000000"/><rect x="198" y="306" width="18" height="18" fill="#000000"/><rect x="252" y="306" width="18" height="18" fill="#000000"/><rect x="270" y="306" width="18" height="18" fill="#000000"/><rect x="288" y="306" width="18" height="18" fill="#000000"/><rect x="324" y="306" width="18" height="18" fill="#000000"/><rect x="342" y="306" width="18" height="18" fill="#000000"/><rect x="360" y="306" width="18" height="18" fill="#000000"/><rect x="414" y="306" width="18" height="18" fill="#000000"/><rect x="432" y="306" width="18" height="18" fill="#000000"/><rect x="450" y="306" width="18" height="18" fill="#000000"/><rect x="522" y="306" width="18" height="18" fill="#000000"/><rect x="540" y="306" width="18" height="18" fill="#000000"/><rect x="54" y="324" width="18" height="18" fill="#000000"/><rect x="90" y="324" width="18" height="18" fill="#000000"/><rect x="144" y="324" width="18" height="18" fill="#000000"/><rect x="180" y="324" width="18" height="18" fill="#000000"/><rect x="198" y="324" width="18" height="18" fill="#000000"/><rect x="216" y="324" width="18" height="18" fill="#000000"/><rect x="234" y="324" width="18" height="18" fill="#000000"/><rect x="270" y="324" width="18" height="18" fill="#000000"/><rect x="306" y="324" width="18" height="18" fill="#000000"/><rect x="324" y="324" width="18" height="18" fill="#000000"/><rect x="342" y="324" width="18" height="18" fill="#000000"/><rect x="360" y="324" width="18" height="18" fill="#000000"/><rect x="396" y="324" width="18" height="18" fill="#000000"/><rect x="414" y="324" width="18" height="18" fill="#000000"/><rect x="432" y="324" width="18" height="18" fill="#000000"/><rect x="450" y="324" width="18" height="18" fill="#000000"/><rect x="486" y="324" width="18" height="18" fill="#000000"/><rect x="522" y="324" width="18" height="18" fill="#000000"/><rect x="72" y="342" width="18" height="18" fill="#000000"/><rect x="90" y="342" width="18" height="18" fill="#000000"/><rect x="108" y="342" width="18" height="18" fill="#000000"/><rect x="126" y="342" width="18" height="18" fill="#000000"/><rect x="162" y="342" width="18" height="18" fill="#000000"/><rect x="198" y="342" width="18" height="18" fill="#000000"/><rect x="234" y="342" width="18" height="18" fill="#000000"/><rect x="306" y="342" width="18" height="18" fill="#000000"/><rect x="324" y="342" width="18" height="18" fill="#000000"/><rect x="342" y="342" width="18" height="18" fill="#000000"/><rect x="378" y="342" width="18" height="18" fill="#000000"/><rect x="414" y="342" width="18" height="18" fill="#000000"/><rect x="432" y="342" width="18" height="18" fill="#000000"/><rect x="522" y="342" width="18" height="18" fill="#000000"/><rect x="540" y="342" width="18" height="18" fill="#000000"/><rect x="36" y="360" width="18" height="18" fill="#000000"/><rect x="90" y="360" width="18" height="18" fill="#000000"/><rect x="108" y="360" width="18" height="18" fill="#000000"/><rect x="144" y="360" width="18" height="18" fill="#000000"/><rect x="180" y="360" width="18" height="18" fill="#000000"/><rect x="198" y="360" width="18" height="18" fill="#000000"/><rect x="252" y="360" width="18" height="18" fill="#000000"/><rect x="324" y="360" width="18" height="18" fill="#000000"/><rect x="342" y="360" width="18" height="18" fill="#000000"/><rect x="360" y="360" width="18" height="18" fill="#000000"/><rect x="414" y="360" width="18" height="18" fill="#000000"/><rect x="468" y="360" width="18" height="18" fill="#000000"/><rect x="504" y="360" width="18" height="18" fill="#000000"/><rect x="522" y="360" width="18" height="18" fill="#000000"/><rect x="540" y="360" width="18" height="18" fill="#000000"/><rect x="54" y="378" width="18" height="18" fill="#000000"/><rect x="72" y="378" width="18" height="18" fill="#000000"/><rect x="108" y="378" width="18" height="18" fill="#000000"/><rect x="126" y="378" width="18" height="18" fill="#000000"/><rect x="216" y="378" width="18" height="18" fill="#000000"/><rect x="252" y="378" width="18" height="18" fill="#000000"/><rect x="288" y="378" width="18" height="18" fill="#000000"/><rect x="342" y="378" width="18" height="18" fill="#000000"/><rect x="360" y="378" width="18" height="18" fill="#000000"/><rect x="378" y="378" width="18" height="18" fill="#000000"/><rect x="396" y="378" width="18" height="18" fill="#000000"/><rect x="432" y="378" width="18" height="18" fill="#000000"/><rect x="36" y="396" width="18" height="18" fill="#000000"/><rect x="90" y="396" width="18" height="18" fill="#000000"/><rect x="108" y="396" width="18" height="18" fill="#000000"/><rect x="126" y="396" width="18" height="18" fill="#000000"/><rect x="144" y="396" width="18" height="18" fill="#000000"/><rect x="162" y="396" width="18" height="18" fill="#000000"/><rect x="198" y="396" width="18" height="18" fill="#000000"/><rect x="216" y="396" width="18" height="18" fill="#000000"/><rect x="234" y="396" width="18" height="18" fill="#000000"/><rect x="270" y="396" width="18" height="18" fill="#000000"/><rect x="324" y="396" width="18" height="18" fill="#000000"/><rect x="396" y="396" width="18" height="18" fill="#000000"/><rect x="414" y="396" width="18" height="18" fill="#000000"/><rect x="432" y="396" width="18" height="18" fill="#000000"/><rect x="450" y="396" width="18" height="18" fill="#000000"/><rect x="468" y="396" width="18" height="18" fill="#000000"/><rect x="522" y="396" width="18" height="18" fill="#000000"/><rect x="540" y="396" width="18" height="18" fill="#000000"/><rect x="180" y="414" width="18" height="18" fill="#000000"/><rect x="198" y="414" width="18" height="18" fill="#000000"/><rect x="234" y="414" width="18" height="18" fill="#000000"/><rect x="252" y="414" width="18" height="18" fill="#000000"/><rect x="270" y="414" width="18" height="18" fill="#000000"/><rect x="306" y="414" width="18" height="18" fill="#000000"/><rect x="360" y="414" width="18" height="18" fill="#000000"/><rect x="378" y="414" width="18" height="18" fill="#000000"/><rect x="396" y="414" width="18" height="18" fill="#000000"/><rect x="468" y="414" width="18" height="18" fill="#000000"/><rect x="522" y="414" width="18" height="18" fill="#000000"/><rect x="540" y="414" width="18" height="18" fill="#000000"/><rect x="36" y="432" width="18" height="18" fill="#000000"/><rect x="54" y="432" width="18" height="18" fill="#000000"/><rect x="72" y="432" width="18" height="18" fill="#000000"/><rect x="90" y="432" width="18" height="18" fill="#000000"/><rect x="108" y="432" width="18" height="18" fill="#000000"/><rect x="126" y="432" width="18" height="18" fill="#000000"/><rect x="144" y="432" width="18" height="18" fill="#000000"/><rect x="198" y="432" width="18" height="18" fill="#000000"/><rect x="252" y="432" width="18" height="18" fill="#000000"/><rect x="288" y="432" width="18" height="18" fill="#000000"/><rect x="360" y="432" width="18" height="18" fill="#000000"/><rect x="378" y="432" width="18" height="18" fill="#000000"/><rect x="396" y="432" width="18" height="18" fill="#000000"/><rect x="432" y="432" width="18" height="18" fill="#000000"/><rect x="468" y="432" width="18" height="18" fill="#000000"/><rect x="504" y="432" width="18" height="18" fill="#000000"/><rect x="522" y="432" width="18" height="18" fill="#000000"/><rect x="540" y="432" width="18" height="18" fill="#000000"/><rect x="36" y="450" width="18" height="18" fill="#000000"/><rect x="144" y="450" width="18" height="18" fill="#000000"/><rect x="180" y="450" width="18" height="18" fill="#000000"/><rect x="198" y="450" width="18" height="18" fill="#000000"/><rect x="252" y="450" width="18" height="18" fill="#000000"/><rect x="270" y="450" width="18" height="18" fill="#000000"/><rect x="288" y="450" width="18" height="18" fill="#000000"/><rect x="324" y="450" width="18" height="18" fill="#000000"/><rect x="342" y="450" width="18" height="18" fill="#000000"/><rect x="360" y="450" width="18" height="18" fill="#000000"/><rect x="396" y="450" width="18" height="18" fill="#000000"/><rect x="468" y="450" width="18" height="18" fill="#000000"/><rect x="36" y="468" width="18" height="18" fill="#000000"/><rect x="72" y="468" width="18" height="18" fill="#000000"/><rect x="90" y="468" width="18" height="18" fill="#000000"/><rect x="108" y="468" width="18" height="18" fill="#000000"/><rect x="144" y="468" width="18" height="18" fill="#000000"/><rect x="180" y="468" width="18" height="18" fill="#000000"/><rect x="216" y="468" width="18" height="18" fill="#000000"/><rect x="234" y="468" width="18" height="18" fill="#000000"/><rect x="252" y="468" width="18" height="18" fill="#000000"/><rect x="288" y="468" width="18" height="18" fill="#000000"/><rect x="306" y="468" width="18" height="18" fill="#000000"/><rect x="342" y="468" width="18" height="18" fill="#000000"/><rect x="396" y="468" width="18" height="18" fill="#000000"/><rect x="414" y="468" width="18" height="18" fill="#000000"/><rect x="432" y="468" width="18" height="18" fill="#000000"/><rect x="450" y="468" width="18" height="18" fill="#000000"/><rect x="468" y="468" width="18" height="18" fill="#000000"/><rect x="486" y="468" width="18" height="18" fill="#000000"/><rect x="36" y="486" width="18" height="18" fill="#000000"/><rect x="72" y="486" width="18" height="18" fill="#000000"/><rect x="90" y="486" width="18" height="18" fill="#000000"/><rect x="108" y="486" width="18" height="18" fill="#000000"/><rect x="144" y="486" width="18" height="18" fill="#000000"/><rect x="198" y="486" width="18" height="18" fill="#000000"/><rect x="252" y="486" width="18" height="18" fill="#000000"/><rect x="270" y="486" width="18" height="18" fill="#000000"/><rect x="306" y="486" width="18" height="18" fill="#000000"/><rect x="324" y="486" width="18" height="18" fill="#000000"/><rect x="342" y="486" width="18" height="18" fill="#000000"/><rect x="360" y="486" width="18" height="18" fill="#000000"/><rect x="396" y="486" width="18" height="18" fill="#000000"/><rect x="414" y="486" width="18" height="18" fill="#000000"/><rect x="468" y="486" width="18" height="18" fill="#000000"/><rect x="486" y="486" width="18" height="18" fill="#000000"/><rect x="36" y="504" width="18" height="18" fill="#000000"/><rect x="72" y="504" width="18" height="18" fill="#000000"/><rect x="90" y="504" width="18" height="18" fill="#000000"/><rect x="108" y="504" width="18" height="18" fill="#000000"/><rect x="144" y="504" width="18" height="18" fill="#000000"/><rect x="180" y="504" width="18" height="18" fill="#000000"/><rect x="198" y="504" width="18" height="18" fill="#000000"/><rect x="216" y="504" width="18" height="18" fill="#000000"/><rect x="252" y="504" width="18" height="18" fill="#000000"/><rect x="288" y="504" width="18" height="18" fill="#000000"/><rect x="306" y="504" width="18" height="18" fill="#000000"/><rect x="324" y="504" width="18" height="18" fill="#000000"/><rect x="342" y="504" width="18" height="18" fill="#000000"/><rect x="360" y="504" width="18" height="18" fill="#000000"/><rect x="378" y="504" width="18" height="18" fill="#000000"/><rect x="450" y="504" width="18" height="18" fill="#000000"/><rect x="468" y="504" width="18" height="18" fill="#000000"/><rect x="486" y="504" width="18" height="18" fill="#000000"/><rect x="504" y="504" width="18" height="18" fill="#000000"/><rect x="540" y="504" width="18" height="18" fill="#000000"/><rect x="36" y="522" width="18" height="18" fill="#000000"/><rect x="144" y="522" width="18" height="18" fill="#000000"/><rect x="252" y="522" width="18" height="18" fill="#000000"/><rect x="360" y="522" width="18" height="18" fill="#000000"/><rect x="396" y="522" width="18" height="18" fill="#000000"/><rect x="450" y="522" width="18" height="18" fill="#000000"/><rect x="522" y="522" width="18" height="18" fill="#000000"/><rect x="36" y="540" width="18" height="18" fill="#000000"/><rect x="54" y="540" width="18" height="18" fill="#000000"/><rect x="72" y="540" width="18" height="18" fill="#000000"/><rect x="90" y="540" width="18" height="18" fill="#000000"/><rect x="108" y="540" width="18" height="18" fill="#000000"/><rect x="126" y="540" width="18" height="18" fill="#000000"/><rect x="144" y="540" width="18" height="18" fill="#000000"/><rect x="216" y="540" width="18" height="18" fill="#000000"/><rect x="270" y="540" width="18" height="18" fill="#000000"/><rect x="288" y="540" width="18" height="18" fill="#000000"/><rect x="306" y="540" width="18" height="18" fill="#000000"/><rect x="324" y="540" width="18" height="18" fill="#000000"/><rect x="342" y="540" width="18" height="18" fill="#000000"/><rect x="378" y="540" width="18" height="18" fill="#000000"/><rect x="396" y="540" width="18" height="18" fill="#000000"/><rect x="414" y="540" width="18" height="18" fill="#000000"/><rect x="432" y="540" width="18" height="18" fill="#000000"/><rect x="468" y="540" width="18" height="18" fill="#000000"/><rect x="486" y="540" width="18" height="18" fill="#000000"/><rect x="522" y="540" width="18" height="18" fill="#000000"/><rect x="540" y="540" width="18" height="18" fill="#000000"/>
    <rect x="221.72" y="221.72" width="150.56" height="150.56" rx="18.0672" fill="#ffffff"/>
    <g transform="translate(225.72, 225.72) scale(0.2784375)">
      <defs>
    <clipPath id="leftHalf">
      <rect x="0" y="0" width="256" height="512" />
    </clipPath>
    <clipPath id="rightHalf">
      <rect x="256" y="0" width="256" height="512" />
    </clipPath>
  </defs>

  <circle cx="256" cy="256" r="220" fill="#ffffff" stroke="#18ff6d" stroke-width="14" />

  <g clip-path="url(#leftHalf)">
    <circle cx="270" cy="256" r="178" fill="#f7f7f7" stroke="#111111" stroke-width="16" />
    <path
      d="M128 196 C170 176 220 172 262 188"
      stroke="#111111"
      stroke-width="18"
      stroke-linecap="round"
    />
    <path
      d="M118 256 C162 236 214 232 268 250"
      stroke="#111111"
      stroke-width="18"
      stroke-linecap="round"
    />
    <path
      d="M128 316 C172 298 220 294 268 310"
      stroke="#111111"
      stroke-width="16"
      stroke-linecap="round"
    />
    <path
      d="M160 160 C196 148 232 146 262 156"
      stroke="#18ff6d"
      stroke-width="14"
      stroke-linecap="round"
    />
  </g>

  <g clip-path="url(#rightHalf)">
    <circle cx="242" cy="256" r="178" fill="#ffffff" stroke="#111111" stroke-width="16" />
    <path
      d="M256 176
         L276 220
         L324 220
         L286 248
         L300 296
         L256 268
         L212 296
         L226 248
         L188 220
         L236 220
         Z"
      fill="#111111"
    />
    <path d="M256 132 L256 176" stroke="#111111" stroke-width="16" stroke-linecap="round" />
    <path d="M324 188 L276 220" stroke="#111111" stroke-width="14" stroke-linecap="round" />
    <path d="M340 256 L276 220" stroke="#111111" stroke-width="14" stroke-linecap="round" />
    <path d="M324 324 L300 296" stroke="#111111" stroke-width="14" stroke-linecap="round" />
    <path d="M256 352 L300 296" stroke="#111111" stroke-width="14" stroke-linecap="round" />
    <path d="M256 352 L212 296" stroke="#111111" stroke-width="14" stroke-linecap="round" />
    <path d="M188 324 L226 248" stroke="#111111" stroke-width="14" stroke-linecap="round" />
    <path d="M172 256 L226 248" stroke="#111111" stroke-width="14" stroke-linecap="round" />
    <path d="M188 188 L236 220" stroke="#111111" stroke-width="14" stroke-linecap="round" />
  </g>

  <path
    d="M256 108 L256 404"
    stroke="#18ff6d"
    stroke-width="14"
    stroke-linecap="round"
  />
    </g>
  </g>
  <text
    x="321"
    y="823"
    text-anchor="middle"
    font-family="Arial, Helvetica, sans-serif"
    font-size="20"
    font-weight="600"
    fill="#000000"
  >Dagliga AI-tips på dina matcher</text>
  <text
    x="321"
    y="866.5"
    text-anchor="middle"
    font-family="Arial, Helvetica, sans-serif"
    font-size="30"
    font-weight="700"
    fill="#000000"
  >brainstats.eu</text>
</svg>
