<svg xmlns="http://www.w3.org/2000/svg" viewBox="0 0 512 512" fill="none">
  <defs>
    <clipPath id="leftHalf">
      <rect x="0" y="0" width="256" height="512" />
    </clipPath>
    <clipPath id="rightHalf">
      <rect x="256" y="0" width="256" height="512" />
    </clipPath>
  </defs>

  <circle cx="256" cy="256" r="220" fill="#ffffff" stroke="#18ff6d" stroke-width="14" />

  <g clip-path="url(#leftHalf)">
    <circle cx="270" cy="256" r="178" fill="#f7f7f7" stroke="#111111" stroke-width="16" />
    <path
      d="M128 196 C170 176 220 172 262 188"
      stroke="#111111"
      stroke-width="18"
      stroke-linecap="round"
    />
    <path
      d="M118 256 C162 236 214 232 268 250"
      stroke="#111111"
      stroke-width="18"
      stroke-linecap="round"
    />
    <path
      d="M128 316 C172 298 220 294 268 310"
      stroke="#111111"
      stroke-width="16"
      stroke-linecap="round"
    />
    <path
      d="M160 160 C196 148 232 146 262 156"
      stroke="#18ff6d"
      stroke-width="14"
      stroke-linecap="round"
    />
  </g>

  <g clip-path="url(#rightHalf)">
    <circle cx="242" cy="256" r="178" fill="#ffffff" stroke="#111111" stroke-width="16" />
    <path
      d="M256 176
         L276 220
         L324 220
         L286 248
         L300 296
         L256 268
         L212 296
         L226 248
         L188 220
         L236 220
         Z"
      fill="#111111"
    />
    <path d="M256 132 L256 176" stroke="#111111" stroke-width="16" stroke-linecap="round" />
    <path d="M324 188 L276 220" stroke="#111111" stroke-width="14" stroke-linecap="round" />
    <path d="M340 256 L276 220" stroke="#111111" stroke-width="14" stroke-linecap="round" />
    <path d="M324 324 L300 296" stroke="#111111" stroke-width="14" stroke-linecap="round" />
    <path d="M256 352 L300 296" stroke="#111111" stroke-width="14" stroke-linecap="round" />
    <path d="M256 352 L212 296" stroke="#111111" stroke-width="14" stroke-linecap="round" />
    <path d="M188 324 L226 248" stroke="#111111" stroke-width="14" stroke-linecap="round" />
    <path d="M172 256 L226 248" stroke="#111111" stroke-width="14" stroke-linecap="round" />
    <path d="M188 188 L236 220" stroke="#111111" stroke-width="14" stroke-linecap="round" />
  </g>

  <path
    d="M256 108 L256 404"
    stroke="#18ff6d"
    stroke-width="14"
    stroke-linecap="round"
  />
</svg>
